<svg xmlns="http://www.w3.org/2000/svg" width="136.94" height="35" viewBox="0 0 136.94 35"><rect class="svg__rect" x="0" y="0" width="94.37" height="35" fill="#A61615"/><rect class="svg__rect" x="92.37" y="0" width="44.57000000000001" height="35" fill="#490100"/><path class="svg__text" d="M16.67 22L14.22 22L14.22 13.47L16.74 13.47Q17.87 13.47 18.74 13.97Q19.62 14.48 20.10 15.40Q20.58 16.33 20.58 17.52L20.58 17.52L20.58 17.95Q20.58 19.16 20.10 20.08Q19.61 21.00 18.72 21.50Q17.83 22 16.67 22L16.67 22ZM15.70 14.66L15.70 20.82L16.67 20.82Q17.83 20.82 18.46 20.09Q19.08 19.36 19.09 17.99L19.09 17.99L19.09 17.52Q19.09 16.13 18.49 15.40Q17.89 14.66 16.74 14.66L16.74 14.66L15.70 14.66ZM26.61 22L25.13 22L25.13 13.47L26.61 13.47L26.61 22ZM30.99 19.42L30.99 19.42L32.47 19.42Q32.47 20.15 32.95 20.55Q33.43 20.95 34.33 20.95L34.33 20.95Q35.10 20.95 35.49 20.63Q35.88 20.32 35.88 19.80L35.88 19.80Q35.88 19.24 35.48 18.94Q35.09 18.63 34.06 18.32Q33.03 18.01 32.42 17.63L32.42 17.63Q31.25 16.90 31.25 15.72L31.25 15.72Q31.25 14.69 32.09 14.02Q32.93 13.35 34.27 13.35L34.27 13.35Q35.16 13.35 35.86 13.68Q36.56 14.01 36.96 14.61Q37.36 15.22 37.36 15.96L37.36 15.96L35.88 15.96Q35.88 15.29 35.46 14.91Q35.04 14.54 34.26 14.54L34.26 14.54Q33.54 14.54 33.13 14.85Q32.73 15.16 32.73 15.71L32.73 15.71Q32.73 16.18 33.17 16.50Q33.60 16.81 34.60 17.10Q35.59 17.40 36.20 17.78Q36.80 18.16 37.08 18.65Q37.36 19.13 37.36 19.79L37.36 19.79Q37.36 20.86 36.54 21.49Q35.73 22.12 34.33 22.12L34.33 22.12Q33.40 22.12 32.62 21.77Q31.85 21.43 31.42 20.83Q30.99 20.22 30.99 19.42ZM41.38 18.19L41.38 18.19L41.38 17.39Q41.38 16.19 41.81 15.27Q42.24 14.35 43.04 13.85Q43.84 13.35 44.89 13.35L44.89 13.35Q46.30 13.35 47.16 14.12Q48.02 14.89 48.16 16.29L48.16 16.29L46.68 16.29Q46.58 15.37 46.15 14.96Q45.72 14.55 44.89 14.55L44.89 14.55Q43.92 14.55 43.40 15.26Q42.88 15.96 42.87 17.33L42.87 17.33L42.87 18.09Q42.87 19.47 43.36 20.20Q43.86 20.92 44.81 20.92L44.81 20.92Q45.69 20.92 46.13 20.53Q46.57 20.14 46.68 19.22L46.68 19.22L48.16 19.22Q48.03 20.59 47.15 21.35Q46.27 22.12 44.81 22.12L44.81 22.12Q43.80 22.12 43.02 21.63Q42.24 21.15 41.82 20.26Q41.40 19.37 41.38 18.19ZM52.20 18.00L52.20 18.00L52.20 17.52Q52.20 16.28 52.65 15.32Q53.09 14.37 53.89 13.86Q54.70 13.35 55.74 13.35Q56.79 13.35 57.59 13.85Q58.40 14.35 58.84 15.29Q59.28 16.23 59.28 17.48L59.28 17.48L59.28 17.96Q59.28 19.21 58.85 20.16Q58.41 21.10 57.61 21.61Q56.80 22.12 55.75 22.12L55.75 22.12Q54.72 22.12 53.91 21.61Q53.09 21.10 52.65 20.17Q52.21 19.23 52.20 18.00ZM53.69 17.46L53.69 17.96Q53.69 19.36 54.23 20.13Q54.78 20.90 55.75 20.90L55.75 20.90Q56.74 20.90 57.27 20.15Q57.80 19.40 57.80 17.96L57.80 17.96L57.80 17.51Q57.80 16.09 57.26 15.34Q56.73 14.58 55.74 14.58L55.74 14.58Q54.78 14.58 54.24 15.33Q53.70 16.09 53.69 17.46L53.69 17.46ZM65.23 22L63.75 22L63.75 13.47L66.75 13.47Q68.22 13.47 69.03 14.13Q69.83 14.79 69.83 16.05L69.83 16.05Q69.83 16.90 69.42 17.48Q69.00 18.06 68.26 18.37L68.26 18.37L70.18 21.92L70.18 22L68.59 22L66.88 18.71L65.23 18.71L65.23 22ZM65.23 14.66L65.23 17.52L66.75 17.52Q67.50 17.52 67.92 17.15Q68.35 16.77 68.35 16.11L68.35 16.11Q68.35 15.43 67.96 15.05Q67.57 14.68 66.79 14.66L66.79 14.66L65.23 14.66ZM76.68 22L74.22 22L74.22 13.47L76.74 13.47Q77.87 13.47 78.75 13.97Q79.63 14.48 80.11 15.40Q80.59 16.33 80.59 17.52L80.59 17.52L80.59 17.95Q80.59 19.16 80.10 20.08Q79.62 21.00 78.73 21.50Q77.83 22 76.68 22L76.68 22ZM75.71 14.66L75.71 20.82L76.67 20.82Q77.84 20.82 78.46 20.09Q79.09 19.36 79.10 17.99L79.10 17.99L79.10 17.52Q79.10 16.13 78.49 15.40Q77.89 14.66 76.74 14.66L76.74 14.66L75.71 14.66Z" fill="#FFFFFF"/><path class="svg__text" d="M108.35 15.48L105.77 15.48L105.77 13.60L113.29 13.60L113.29 15.48L110.72 15.48L110.72 22L108.35 22L108.35 15.48ZM117.08 21.24L117.08 21.24L117.85 19.49Q118.42 19.86 119.16 20.09Q119.91 20.32 120.63 20.32L120.63 20.32Q121.99 20.32 122.00 19.64L122.00 19.64Q122.00 19.28 121.61 19.11Q121.22 18.93 120.35 18.74L120.35 18.74Q119.40 18.53 118.77 18.30Q118.13 18.06 117.68 17.55Q117.22 17.03 117.22 16.16L117.22 16.16Q117.22 15.39 117.64 14.77Q118.06 14.15 118.89 13.79Q119.73 13.43 120.94 13.43L120.94 13.43Q121.76 13.43 122.57 13.62Q123.37 13.80 123.99 14.17L123.99 14.17L123.26 15.93Q122.06 15.28 120.93 15.28L120.93 15.28Q120.22 15.28 119.89 15.49Q119.57 15.70 119.57 16.04L119.57 16.04Q119.57 16.37 119.96 16.54Q120.34 16.71 121.19 16.89L121.19 16.89Q122.15 17.10 122.78 17.33Q123.41 17.56 123.87 18.07Q124.34 18.58 124.34 19.46L124.34 19.46Q124.34 20.21 123.92 20.83Q123.50 21.44 122.66 21.80Q121.82 22.17 120.61 22.17L120.61 22.17Q119.59 22.17 118.63 21.92Q117.67 21.67 117.08 21.24Z" fill="#FFFFFF" x="105.37"/></svg>